# xmcd
#
# Track frame offsets: 
#        150
#        11395
#        24387
#        40647
#        57062
#        70763
#        80278
#        95972
#        108919
#        127088
#        137131
#        153396
#
# Disc length: 2425 seconds
#
# Revision: 1
# Processed by: cddbd v1.5.2PL0 Copyright (c) Steve Scherf et al.
# Submitted via: ExactAudioCopy v0.99pb4
#
DISCID=9309770c
DTITLE=Kool Savas - Tot oder lebendig
DYEAR=2007
DGENRE=Rap
TTITLE0=T.O.L. Intro
TTITLE1=Orakel
TTITLE2=Der Beweis
TTITLE3=On Top (Feat. Azad)
TTITLE4=Essah (Feat. Moe Mitchell)
TTITLE5=Mona Lisa
TTITLE6=Alle Schieben Optik
TTITLE7=Nur Ein Spiel
TTITLE8=Tot Oder lebendig
TTITLE9=Dede Skit
TTITLE10=Krank
TTITLE11=Melodie (Feat. Moe Mitchell and Senna)
EXTD=
EXTT0=
EXTT1=
EXTT2=
EXTT3=
EXTT4=
EXTT5=
EXTT6=
EXTT7=
EXTT8=
EXTT9=
EXTT10=
EXTT11=
PLAYORDER=
